# xmcd
#
# Track frame offsets:
#	150
#	38590
#	71285
#	102470
#	143907
#	182832
#	222865
#	268587
#
# Disc length: 4183 seconds
#
# Revision: 0
# Processed by: cddbd v1.5.1PL2 Copyright (c) Steve Scherf et al.
# Submitted via: dBpowerAMP V4.0
#
DISCID=71105508
DTITLE=Papa Wemba - Papa Wemba et l'orchestre Viva La Musica
DYEAR=1988
DGENRE=Afrobeat
TTITLE0=Rendre a Cesar, ce qui est a Cesar
TTITLE1=Ufukutanu
TTITLE2=Mukaji Wanyi
TTITLE3=Signorina
TTITLE4=Keni Ya Bolingo
TTITLE5=Botika Tembe
TTITLE6=Sina Ndungu
TTITLE7=Silutadi
EXTD=Africa - Soukous - Papa Wemba et l'orchestre Viva La Musica
EXTT0=
EXTT1=
EXTT2=
EXTT3=
EXTT4=
EXTT5=
EXTT6=
EXTT7=
PLAYORDER=
